<svg width="720" height="720" viewBox="0 0 720 720" fill="none" xmlns="http://www.w3.org/2000/svg">
<g clip-path="url(#clip0_12_7)">
<rect width="720" height="720" fill="white"/>
<path d="M-182 0H1418V720H-182V0Z" fill="#0855BF"/>
<path d="M423.233 95.7126C443.321 42.912 502.576 16.3664 555.324 36.4758C608.071 56.5852 634.669 115.878 614.586 168.664C597.154 214.485 490.1 294.641 468.802 310.243C463.434 314.186 456.43 315.134 450.196 312.757C443.961 310.38 439.369 305.012 437.974 298.491C432.469 272.669 405.801 141.534 423.233 95.7126Z" fill="#25DDF5"/>
<path d="M202.863 497.311C147.128 506.385 94.4656 468.397 85.4156 412.662C76.3655 356.926 114.312 304.188 170.032 295.116C218.4 287.242 341.389 339.736 365.559 350.353C371.661 353.023 375.991 358.61 377.06 365.198C378.13 371.786 375.789 378.451 370.849 382.927C351.276 400.632 251.231 489.437 202.863 497.311Z" fill="#25DDF5"/>
<path d="M200.125 231.223C166.141 186.103 175.201 121.762 220.269 87.7621C265.337 53.7624 329.644 62.7735 363.619 107.881C393.11 147.037 403.979 280.411 405.85 306.763C406.331 313.411 403.407 319.849 398.081 323.868C392.754 327.887 385.77 328.922 379.511 326.634C354.739 317.559 229.616 270.379 200.125 231.223Z" fill="#25DDF5"/>
<path d="M428.661 620.536C405.37 672.002 344.597 694.855 293.183 671.542C241.77 648.23 218.862 587.414 242.146 535.963C262.359 491.3 374.131 417.877 396.347 403.612C401.947 400.007 408.995 399.491 415.072 402.247C421.149 405.002 425.403 410.642 426.395 417.237C430.305 443.348 448.874 575.873 428.661 620.536Z" fill="#25DDF5"/>
</g>
<defs>
<clipPath id="clip0_12_7">
<rect width="720" height="720" fill="white"/>
</clipPath>
</defs>
</svg>
